<svg xmlns="http://www.w3.org/2000/svg" xmlns:xlink="http://www.w3.org/1999/xlink" width="36" height="36" viewBox="0 0 36 36">
    <defs>
        <filter id="43kiv9ia0a" width="209.4%" height="209.4%" x="-54.7%" y="-39.1%" filterUnits="objectBoundingBox">
            <feOffset dy="10" in="SourceAlpha" result="shadowOffsetOuter1"/>
            <feGaussianBlur in="shadowOffsetOuter1" result="shadowBlurOuter1" stdDeviation="10"/>
            <feColorMatrix in="shadowBlurOuter1" values="0 0 0 0 0 0 0 0 0 0 0 0 0 0 0 0 0 0 0.1 0"/>
        </filter>
        <rect id="4naz428t4b" width="64" height="64" x="0" y="0" rx="12"/>
    </defs>
    <g fill="none" fill-rule="evenodd">
        <g>
            <path fill="#F7F7F8" d="M0 0H360V760H0z" transform="translate(-122 -594)"/>
            <g>
                <g transform="translate(-122 -594) translate(108 580)">
                    <use fill="#000" filter="url(#43kiv9ia0a)" xlink:href="#4naz428t4b"/>
                    <use fill="#FFF" xlink:href="#4naz428t4b"/>
                </g>
                <g fill-rule="nonzero">
                    <g>
                        <path fill="#FFF" d="M9.676.774c-3.472 1.22-6.475 3.848-8.164 7.132C.95 9.032.48 10.252.292 11.566c-.657 3.097-.187 6.475 1.22 9.29.939 1.877 2.252 3.472 3.942 4.786 1.501 1.22 3.284 2.159 5.255 2.628 2.44.657 4.973.657 7.32.094 2.158-.47 4.222-1.502 5.911-3.097 1.783-1.595 3.003-3.66 3.66-6.006.75-2.44.845-5.067.376-7.601H14.462v5.63h7.79c-.282 1.783-1.408 3.472-2.91 4.41-.938.658-2.064 1.033-3.19 1.22-1.127.189-2.347.189-3.473 0-1.126-.187-2.252-.75-3.19-1.407-1.502-1.032-2.722-2.627-3.285-4.41-.657-1.783-.657-3.754 0-5.63.47-1.22 1.126-2.44 2.065-3.38 1.126-1.22 2.627-2.064 4.316-2.345 1.408-.282 2.816-.282 4.223.187 1.126.376 2.253 1.033 3.097 1.783l2.628-2.627 1.407-1.408c-1.313-1.22-2.909-2.252-4.598-2.909-3.097-1.032-6.569-1.032-9.666 0z" transform="translate(-122 -594) translate(108 580) translate(17.455 17.455)"/>
                        <path fill="#EA4335" d="M9.676.774c3.097-1.032 6.57-1.032 9.666.094 1.69.657 3.285 1.595 4.598 2.91l-1.407 1.407-2.628 2.627c-.844-.844-1.97-1.501-3.097-1.783-1.313-.375-2.815-.469-4.223-.187-1.595.375-3.096 1.22-4.316 2.346-.939.938-1.69 2.158-2.065 3.378-1.595-1.22-3.097-2.44-4.692-3.66C3.202 4.622 6.204 1.994 9.676.774z" transform="translate(-122 -594) translate(108 580) translate(17.455 17.455)"/>
                        <path fill="#FBBC05" d="M.292 11.566c.282-1.22.657-2.44 1.22-3.66 1.595 1.22 3.097 2.44 4.692 3.66-.657 1.783-.657 3.754 0 5.63-1.595 1.22-3.097 2.44-4.692 3.66-1.407-2.909-1.877-6.193-1.22-9.29z" transform="translate(-122 -594) translate(108 580) translate(17.455 17.455)"/>
                        <path fill="#4285F4" d="M14.368 11.66h13.514c.469 2.534.375 5.161-.376 7.601-.657 2.252-1.877 4.317-3.66 6.006-1.501-1.22-3.002-2.346-4.598-3.566 1.502-1.032 2.534-2.628 2.91-4.41h-7.79V11.66z" transform="translate(-122 -594) translate(108 580) translate(17.455 17.455)"/>
                        <path fill="#34A853" d="M1.512 20.856c1.595-1.22 3.097-2.44 4.692-3.66.563 1.783 1.783 3.379 3.285 4.411.938.657 2.064 1.126 3.19 1.408 1.126.187 2.253.187 3.472 0 1.127-.188 2.253-.657 3.191-1.22 1.502 1.22 3.003 2.346 4.598 3.566-1.689 1.501-3.66 2.533-5.912 3.096-2.44.564-4.973.564-7.32-.093-1.876-.47-3.66-1.408-5.254-2.628-1.596-1.408-3.003-3.097-3.942-4.88z" transform="translate(-122 -594) translate(108 580) translate(17.455 17.455)"/>
                    </g>
                </g>
            </g>
        </g>
    </g>
</svg>
