<svg xmlns="http://www.w3.org/2000/svg" xmlns:xlink="http://www.w3.org/1999/xlink" width="36" height="36" viewBox="0 0 36 36">
    <defs>
        <filter id="ukal39mgka" width="209.4%" height="209.4%" x="-54.7%" y="-39.1%" filterUnits="objectBoundingBox">
            <feOffset dy="10" in="SourceAlpha" result="shadowOffsetOuter1"/>
            <feGaussianBlur in="shadowOffsetOuter1" result="shadowBlurOuter1" stdDeviation="10"/>
            <feColorMatrix in="shadowBlurOuter1" values="0 0 0 0 0 0 0 0 0 0 0 0 0 0 0 0 0 0 0.1 0"/>
        </filter>
        <rect id="6u8bq2jesb" width="64" height="64" x="0" y="0" rx="12"/>
    </defs>
    <g fill="none" fill-rule="evenodd">
        <g>
            <path fill="#F7F7F8" d="M0 0H360V760H0z" transform="translate(-202 -594)"/>
            <g>
                <g>
                    <g transform="translate(-202 -594) translate(108 580) translate(80)">
                        <use fill="#000" filter="url(#ukal39mgka)" xlink:href="#6u8bq2jesb"/>
                        <use fill="#FFF" xlink:href="#6u8bq2jesb"/>
                    </g>
                    <g>
                        <path fill="#391B1B" d="M16.846 0C7.542 0 0 5.962 0 13.318c0 4.787 3.196 8.983 7.992 11.33-.352 1.316-1.276 4.767-1.461 5.505-.228.916.336.904.705.657.29-.193 4.617-3.134 6.483-4.404 1.013.15 2.059.23 3.127.23 9.304 0 16.847-5.963 16.847-13.318C33.693 5.962 26.15 0 16.846 0" transform="translate(-202 -594) translate(108 580) translate(80) translate(15.127 16.29)"/>
                        <path fill="#FAE300" d="M10.067 9.396H5.141c-.463 0-.838.375-.838.837 0 .463.375.838.838.838h1.601v5.902c0 .214.088.425.241.578.15.152.361.24.576.24h.18c.214 0 .424-.088.574-.24.154-.152.241-.362.241-.578V11.07h1.513c.464 0 .839-.375.839-.838 0-.462-.375-.837-.839-.837M21.906 16.214h-2.29v-6.027c0-.503-.407-.91-.909-.91s-.909.407-.909.91v6.497c0 .05.006.098.014.145-.009.047-.014.096-.014.145 0 .42.34.762.76.762h3.348c.421 0 .76-.341.76-.762 0-.419-.339-.76-.76-.76M29.227 16.49l-2.553-3.352 2.307-2.308c.312-.311.312-.819 0-1.13-.312-.313-.819-.313-1.132 0l-2.856 2.855v-2.368c0-.503-.406-.91-.908-.91-.503 0-.91.407-.91.91v6.696c0 .503.407.91.91.91.502 0 .908-.407.908-.91v-2.066l.52-.518 2.414 3.169c.269.359.78.432 1.138.161.36-.27.432-.78.162-1.138M12.336 14.534l1.13-3.222c.012 0 .023.004.036.004l1.128 3.218h-2.294zm4.782 2.175l-2.456-6.717-.008-.007c-.157-.41-.61-.708-1.15-.708-.6 0-1.095.367-1.194.846-.016.036-.033.071-.047.11L9.85 16.71c-.149.425.075.89.498 1.038.424.15.89-.075 1.039-.499l.417-1.192h3.36l.418 1.192c.15.424.614.648 1.038.499.424-.149.648-.613.499-1.038z" transform="translate(-202 -594) translate(108 580) translate(80) translate(15.127 16.29)"/>
                    </g>
                </g>
            </g>
        </g>
    </g>
</svg>
