<svg xmlns="http://www.w3.org/2000/svg" width="227" height="297" viewBox="0 0 227 297">
    <g fill="none" fill-rule="evenodd">
        <g>
            <g transform="translate(-67 -235) translate(67 235)">
                <circle cx="113.5" cy="183.5" r="113.5" fill="#FFF"/>
                <g>
                    <path fill="#F3E8E2" d="M23.395 202.448c.332 3.45 2.957 15.975 3.107 18.75.15 2.775 0 4.65 0 4.65l7.482.525s-.077-4.725.833-10.35c.91-5.625.535-12.783.535-12.783s-7.863-3.867-11.957-.792" transform="translate(47)"/>
                    <path stroke="#231F20" stroke-linecap="round" stroke-linejoin="round" stroke-width=".6" d="M23.395 202.448c.332 3.45 2.957 15.975 3.107 18.75.15 2.775 0 4.65 0 4.65l7.482.525s-.077-4.725.833-10.35c.91-5.625.535-12.783.535-12.783s-7.863-3.867-11.957-.792z" transform="translate(47)"/>
                    <path fill="#231F20" d="M25.13 201.586l.08 1.441c3.574.368 4.475 5.132 10.203 5.43.056-2.968-.062-5.216-.062-5.216s-5.976-2.94-10.221-1.655" transform="translate(47)"/>
                    <path stroke="#231F20" stroke-linecap="round" stroke-linejoin="round" stroke-width=".6" d="M25.13 201.586l.08 1.441c3.574.368 4.475 5.132 10.203 5.43.056-2.968-.062-5.216-.062-5.216s-5.976-2.94-10.221-1.655z" transform="translate(47)"/>
                    <path fill="#FFAA3F" d="M35.214 212.633c-2.127 1.008-5.52 1.845-10.003.505.643 3.522 1.222 6.798 1.29 8.06.15 2.775 0 4.65 0 4.65l7.483.525s-.077-4.725.833-10.35c.176-1.094.305-2.245.397-3.39" transform="translate(47)"/>
                    <path stroke="#231F20" stroke-linecap="round" stroke-linejoin="round" stroke-width=".6" d="M35.214 212.633c-2.127 1.008-5.52 1.845-10.003.505.643 3.522 1.222 6.798 1.29 8.06.15 2.775 0 4.65 0 4.65l7.483.525s-.077-4.725.833-10.35c.176-1.094.305-2.245.397-3.39z" transform="translate(47)"/>
                    <path fill="#F56D8E" d="M26.564 224.198c4.438-1.65 6.988.89 6.988.89l.491-1.447s1.387 1.307 1.385 4.532c-.001 3.225-1.426 3.375-1.126 6.6.3 3.225-.75 7.05-1.95 7.5-1.2.45-7.725.9-11.175-.375 0 0-.6-2.55-.375-4.05.225-1.5 3.117-4.2 4.409-8.1 1.29-3.9.44-4.724 1.353-5.55" transform="translate(47)"/>
                    <path stroke="#231F20" stroke-linecap="round" stroke-linejoin="round" stroke-width=".6" d="M26.564 224.198c4.438-1.65 6.988.89 6.988.89l.491-1.447s1.387 1.307 1.385 4.532c-.001 3.225-1.426 3.375-1.126 6.6.3 3.225-.75 7.05-1.95 7.5-1.2.45-7.725.9-11.175-.375 0 0-.6-2.55-.375-4.05.225-1.5 3.117-4.2 4.409-8.1 1.29-3.9.44-4.724 1.353-5.55z" transform="translate(47)"/>
                    <path fill="#231F20" d="M21.177 241.898c3.45 1.275 9.975.825 11.175.375.823-.31 1.576-2.21 1.87-4.413-1.84.678-6.27 1.739-13.42-.012-.225 1.5.375 4.05.375 4.05" transform="translate(47)"/>
                    <path stroke="#231F20" stroke-linecap="round" stroke-linejoin="round" stroke-width=".6" d="M21.177 241.898c3.45 1.275 9.975.825 11.175.375.823-.31 1.576-2.21 1.87-4.413-1.84.678-6.27 1.739-13.42-.012-.225 1.5.375 4.05.375 4.05zM30.48 228.433c-.994-.495-2.518-.83-4.78-.422M33.552 225.089c.1.653-.026 1.405-.237 2.117M34.222 229.898c-.258 2.25.12 5.476.12 5.476" transform="translate(47)"/>
                    <path fill="#F3E8E2" d="M49.846 202.448c-.331 3.45-2.956 15.975-3.106 18.75-.15 2.775 0 4.65 0 4.65l-7.483.525s.077-4.725-.832-10.35c-.91-5.625-.535-12.783-.535-12.783s7.862-3.867 11.956-.792" transform="translate(47)"/>
                    <path stroke="#231F20" stroke-linecap="round" stroke-linejoin="round" stroke-width=".6" d="M49.846 202.448c-.331 3.45-2.956 15.975-3.106 18.75-.15 2.775 0 4.65 0 4.65l-7.483.525s.077-4.725-.832-10.35c-.91-5.625-.535-12.783-.535-12.783s7.862-3.867 11.956-.792z" transform="translate(47)"/>
                    <path fill="#231F20" d="M47.38 201.41l-.093-.018c-.1-.018-.202-.032-.303-.046l-.143-.02c-.099-.01-.198-.02-.297-.028-.051-.004-.103-.01-.154-.013-.1-.006-.198-.012-.298-.015l-.153-.005c-.102-.002-.204-.003-.307-.003l-.136.003-.327.009-.074.005c-.4.02-.799.06-1.194.117l-.048.006c-.114.016-.228.034-.341.053l-.112.019c-.106.018-.213.038-.318.058l-.126.024c-.103.021-.207.042-.31.066l-.118.026c-.105.024-.21.047-.312.072l-.093.023-.328.083c-.378.1-.74.206-1.08.315l-.047.014-.272.09-.095.03-.244.085-.099.035-.226.081c-.032.013-.065.024-.097.036-.071.027-.142.053-.21.08-.027.009-.053.02-.079.03-.071.026-.142.053-.21.08l-.002.002c-.243.096-.454.184-.633.26l-.04.017-.129.057-.054.024-.098.044-.049.021-.08.037-.029.014-.06.028-.017.008-.055.027s-.091 1.744-.074 4.184c3.746-2.074 8.257-3.212 11.841-3.519.087-.579.153-1.077.19-1.458-.148-.11-.3-.21-.457-.302l-1.278-.56c-.239-.072-.483-.129-.731-.175" transform="translate(47)"/>
                    <path stroke="#231F20" stroke-linecap="round" stroke-linejoin="round" stroke-width=".6" d="M47.38 201.41l-.093-.018c-.1-.018-.202-.032-.303-.046l-.143-.02c-.099-.01-.198-.02-.297-.028-.051-.004-.103-.01-.154-.013-.1-.006-.198-.012-.298-.015l-.153-.005c-.102-.002-.204-.003-.307-.003l-.136.003-.327.009-.074.005c-.4.02-.799.06-1.194.117l-.048.006c-.114.016-.228.034-.341.053l-.112.019c-.106.018-.213.038-.318.058l-.126.024c-.103.021-.207.042-.31.066l-.118.026c-.105.024-.21.047-.312.072l-.093.023-.328.083h0c-.378.1-.74.206-1.08.315l-.047.014-.272.09-.095.03-.244.085-.099.035-.226.081c-.032.013-.065.024-.097.036-.071.027-.142.053-.21.08-.027.009-.053.02-.079.03-.071.026-.142.053-.21.08l-.002.002c-.243.096-.454.184-.633.26l-.04.017-.129.057-.054.024-.098.044-.049.021-.08.037-.029.014-.06.028-.017.008-.055.027s-.091 1.744-.074 4.184c3.746-2.074 8.257-3.212 11.841-3.519.087-.579.153-1.077.19-1.458-.148-.11-.3-.21-.457-.302l-1.278-.56c-.239-.072-.483-.129-.731-.175z" transform="translate(47)"/>
                    <path fill="#FFAA3F" d="M38.028 212.633c2.127 1.008 5.52 1.845 10.003.505-.643 3.522-1.223 6.798-1.29 8.06-.15 2.775 0 4.65 0 4.65l-7.484.525s.077-4.725-.832-10.35c-.177-1.094-.305-2.245-.397-3.39" transform="translate(47)"/>
                    <path stroke="#231F20" stroke-linecap="round" stroke-linejoin="round" stroke-width=".6" d="M38.028 212.633c2.127 1.008 5.52 1.845 10.003.505-.643 3.522-1.223 6.798-1.29 8.06-.15 2.775 0 4.65 0 4.65l-7.484.525s.077-4.725-.832-10.35c-.177-1.094-.305-2.245-.397-3.39z" transform="translate(47)"/>
                    <path fill="#F56D8E" d="M46.677 224.198c-4.437-1.65-6.987.89-6.987.89l-.492-1.447s-1.386 1.307-1.385 4.532c.002 3.225 1.427 3.375 1.127 6.6-.3 3.225.75 7.05 1.95 7.5 1.2.45 7.725.9 11.175-.375 0 0 .6-2.55.375-4.05-.225-1.5-3.118-4.2-4.41-8.1-1.29-3.9-.44-4.724-1.353-5.55" transform="translate(47)"/>
                    <path stroke="#231F20" stroke-linecap="round" stroke-linejoin="round" stroke-width=".6" d="M46.677 224.198c-4.437-1.65-6.987.89-6.987.89l-.492-1.447s-1.386 1.307-1.385 4.532c.002 3.225 1.427 3.375 1.127 6.6-.3 3.225.75 7.05 1.95 7.5 1.2.45 7.725.9 11.175-.375 0 0 .6-2.55.375-4.05-.225-1.5-3.118-4.2-4.41-8.1-1.29-3.9-.44-4.724-1.353-5.55z" transform="translate(47)"/>
                    <path fill="#231F20" d="M52.065 241.898c-3.45 1.275-9.975.825-11.175.375-.824-.31-1.577-2.21-1.871-4.413 1.84.678 6.27 1.739 13.42-.012.226 1.5-.374 4.05-.374 4.05" transform="translate(47)"/>
                    <path stroke="#231F20" stroke-linecap="round" stroke-linejoin="round" stroke-width=".6" d="M52.065 241.898c-3.45 1.275-9.975.825-11.175.375-.824-.31-1.577-2.21-1.871-4.413 1.84.678 6.27 1.739 13.42-.012.226 1.5-.374 4.05-.374 4.05zM42.761 228.433c.994-.495 2.52-.83 4.78-.422M39.69 225.089c-.1.653.025 1.405.236 2.117M39.019 229.898c.259 2.25-.118 5.476-.118 5.476" transform="translate(47)"/>
                    <path fill="#F3E8E2" d="M14.648 123.135c-2.921 29.288-5.485 79.013-5.485 79.013s5.71 6.994 12.974 2.284 8.586 2.91 16.025 0c7.44-2.91 16.44.45 21.24-.93 4.8-1.38 7.033-5.18 7.033-5.18s-3.109-62-6.272-76c-3.162-14-6.98-27.368-6.98-27.368l-36.871.638-1.664 27.543z" transform="translate(47)"/>
                    <path stroke="#231F20" stroke-linecap="round" stroke-linejoin="round" stroke-width=".6" d="M14.648 123.135c-2.921 29.288-5.485 79.013-5.485 79.013s5.71 6.994 12.974 2.284 8.586 2.91 16.025 0c7.44-2.91 16.44.45 21.24-.93 4.8-1.38 7.033-5.18 7.033-5.18s-3.109-62-6.272-76c-3.162-14-6.98-27.368-6.98-27.368l-36.871.638-1.664 27.543z" transform="translate(47)"/>
                    <path fill="#FFAA3F" d="M59.402 198.721c-4.8 1.38-13.8-1.98-21.24.93-7.439 2.91-8.76-4.71-16.025 0-6.393 4.146-11.58-.774-12.733-2.014-.156 2.863-.241 4.51-.241 4.51s5.71 6.995 12.974 2.286c7.265-4.71 8.586 2.909 16.025 0 7.44-2.91 16.44.45 21.24-.93 4.8-1.38 7.033-5.18 7.033-5.18s-.083-1.638-.233-4.43c-.683.973-2.889 3.704-6.8 4.828" transform="translate(47)"/>
                    <path stroke="#231F20" stroke-linecap="round" stroke-linejoin="round" stroke-width=".6" d="M59.402 198.721c-4.8 1.38-13.8-1.98-21.24.93-7.439 2.91-8.76-4.71-16.025 0-6.393 4.146-11.58-.774-12.733-2.014-.156 2.863-.241 4.51-.241 4.51s5.71 6.995 12.974 2.286c7.265-4.71 8.586 2.909 16.025 0 7.44-2.91 16.44.45 21.24-.93 4.8-1.38 7.033-5.18 7.033-5.18s-.083-1.638-.233-4.43c-.683.973-2.889 3.704-6.8 4.828z" transform="translate(47)"/>
                    <path fill="#231F20" d="M60.164 122.323c-1.408-6.232-2.945-12.335-4.217-17.193l-6.245.718-5.6 24.075c6.474 2.996 13.147 4.846 17.953 5.92-.611-5.869-1.25-10.682-1.891-13.52" transform="translate(47)"/>
                    <path stroke="#231F20" stroke-linecap="round" stroke-linejoin="round" stroke-width=".6" d="M60.164 122.323c-1.408-6.232-2.945-12.335-4.217-17.193l-6.245.718-5.6 24.075c6.474 2.996 13.147 4.846 17.953 5.92-.611-5.869-1.25-10.682-1.891-13.52zM26.001 146.407c-2.8 27.316-2.602 52.517-2.602 52.517M33.152 133.523s1.85 53.376 1.65 71.588M45.252 148.323c-.65 37 2.092 54.917 2.092 54.917M53.932 159.523c.87 25.2 3.55 43.98 3.55 43.98" transform="translate(47)"/>
                    <path fill="#231F20" d="M71.301 111.623c.2 2.7 0 6.4 0 6.4l-8.609 1.1-1.214-6.345 9.823-1.155z" transform="translate(47)"/>
                    <path stroke="#231F20" stroke-linecap="round" stroke-linejoin="round" stroke-width=".6" d="M71.301 111.623c.2 2.7 0 6.4 0 6.4l-8.609 1.1-1.214-6.345 9.823-1.155z" transform="translate(47)"/>
                    <path fill="#346E94" d="M57.002 58.268c4.7 2.755 5.8 7.589 6.2 10.672.4 3.083 1.4 7.833 3 15.808s4.8 15.075 5.8 21.975c1 6.9 0 6.055 0 6.055l-10 1.545s-4.5-13.191-7.2-22.42c-2.7-9.23-2-16.796-.8-24.188 1.2-7.392 3-9.447 3-9.447" transform="translate(47)"/>
                    <path stroke="#231F20" stroke-linecap="round" stroke-linejoin="round" stroke-width=".6" d="M57.002 58.268c4.7 2.755 5.8 7.589 6.2 10.672.4 3.083 1.4 7.833 3 15.808s4.8 15.075 5.8 21.975c1 6.9 0 6.055 0 6.055l-10 1.545s-4.5-13.191-7.2-22.42c-2.7-9.23-2-16.796-.8-24.188 1.2-7.392 3-9.447 3-9.447z" transform="translate(47)"/>
                    <path fill="#231F20" d="M63.566 111.623s-1.64-30.55-5.452-34.575c-3.812-4.025-6.957 8.409-6.957 8.409l12.409 26.166z" transform="translate(47)"/>
                    <path stroke="#231F20" stroke-linecap="round" stroke-linejoin="round" stroke-width=".6" d="M63.566 111.623s-1.64-30.55-5.452-34.575c-3.812-4.025-6.957 8.409-6.957 8.409l12.409 26.166z" transform="translate(47)"/>
                    <path fill="#231F20" d="M24.501 47.406s-5.9-2.124-7.9 3.696 6.812 13.15 12.456 7.386c5.644-5.766.468-10.065.468-10.065l-5.024-1.017z" transform="translate(47)"/>
                    <path stroke="#231F20" stroke-linecap="round" stroke-linejoin="round" stroke-width=".6" d="M24.501 47.406s-5.9-2.124-7.9 3.696 6.812 13.15 12.456 7.386c5.644-5.766.468-10.065.468-10.065l-5.024-1.017zM14.202 52.123c2.3-5.6 7.4-5.933 10.3-4.716" transform="translate(47)"/>
                    <path fill="#F56D8E" d="M25.414 44.835l-.913 2.571s4.725 4.117 7.963 2.317c3.238-1.8 1.738-4.596 1.738-4.596l-8.788-.292z" transform="translate(47)"/>
                    <path stroke="#231F20" stroke-linecap="round" stroke-linejoin="round" stroke-width=".6" d="M25.414 44.835l-.913 2.571s4.725 4.117 7.963 2.317c3.238-1.8 1.738-4.596 1.738-4.596l-8.788-.292z" transform="translate(47)"/>
                    <path fill="#231F20" d="M39.139 22.073c5.625-.337 8.25 5.55 8.25 5.55s2.587-.45 3.225 3.188c.637 3.637-5.175 5.024-5.175 5.024s-1.2-7.762-4.612-9.412c-3.413-1.65-1.688-4.35-1.688-4.35" transform="translate(47)"/>
                    <path stroke="#231F20" stroke-linecap="round" stroke-linejoin="round" stroke-width=".6" d="M39.139 22.073c5.625-.337 8.25 5.55 8.25 5.55s2.587-.45 3.225 3.188c.637 3.637-5.175 5.024-5.175 5.024s-1.2-7.762-4.612-9.412c-3.413-1.65-1.688-4.35-1.688-4.35z" transform="translate(47)"/>
                    <g>
                        <path fill="#F3E8E2" d="M17.127 35.54l1.725-14.293-3.75-6.107s-1.275-6.825.375-11.925L5.414.273s1.138 2.417-.512 6.242c-1.413 3.274-4.875 9.9-4.875 9.9v19.5" transform="translate(47) translate(26.4 42.032)"/>
                        <path stroke="#231F20" stroke-linecap="round" stroke-linejoin="round" stroke-width=".6" d="M17.127 35.54l1.725-14.293-3.75-6.107s-1.275-6.825.375-11.925L5.414.273s1.138 2.417-.512 6.242c-1.413 3.274-4.875 9.9-4.875 9.9v19.5" transform="translate(47) translate(26.4 42.032)"/>
                    </g>
                    <path stroke="#231F20" stroke-linecap="round" stroke-linejoin="round" stroke-width=".6" d="M28.977 62.798c3.01 1.282 5.688 1.9 6.865 2.135.419.082.788.317 1.047.656l.33.434" transform="translate(47)"/>
                    <path fill="#231F20" d="M41.877 45.248l-.414-.121-4.244 1.175s1.058 5.815 2.738 9c.337.639 1.316.34 1.245-.38-.24-2.435-.382-6.408.675-9.674" transform="translate(47)"/>
                    <path stroke="#231F20" stroke-linecap="round" stroke-linejoin="round" stroke-width=".6" d="M41.877 45.248l-.414-.121-4.244 1.175s1.058 5.815 2.738 9c.337.639 1.316.34 1.245-.38-.24-2.435-.382-6.408.675-9.674z" transform="translate(47)"/>
                    <path fill="#F56D8E" d="M30.145 73.898c7.981 2.775 15.106-.525 15.106-.525l-.525 26.775-12.3.375-2.28-26.625z" transform="translate(47)"/>
                    <path stroke="#231F20" stroke-linecap="round" stroke-linejoin="round" stroke-width=".6" d="M30.145 73.898c7.981 2.775 15.106-.525 15.106-.525l-.525 26.775-12.3.375-2.28-26.625z" transform="translate(47)"/>
                    <g>
                        <path fill="#F3E8E2" d="M6.477 21.215c1.95 1.35 6.9 3.15 8.85 1.725 1.95-1.425 1.987-7.65 1.987-7.65l1.388-.825-1.425-3.675-.03-.32C16.826 6.127 13.956 2.333 9.82.94 8.88.623 7.995.44 7.302.515 4.527.815.477 5.465.177 9.29c-.3 3.825 1.65 7.238 2.002 10.12" transform="translate(47) translate(30 24.632)"/>
                        <path stroke="#231F20" stroke-linecap="round" stroke-linejoin="round" stroke-width=".6" d="M6.477 21.215c1.95 1.35 6.9 3.15 8.85 1.725 1.95-1.425 1.987-7.65 1.987-7.65l1.388-.825-1.425-3.675-.03-.32C16.826 6.127 13.956 2.333 9.82.94 8.88.623 7.995.44 7.302.515 4.527.815.477 5.465.177 9.29c-.3 3.825 1.65 7.238 2.002 10.12" transform="translate(47) translate(30 24.632)"/>
                    </g>
                    <path fill="#231F20" d="M44.001 34.223c0 .497-.402.9-.9.9-.496 0-.9-.403-.9-.9 0-.498.404-.9.9-.9.498 0 .9.402.9.9" transform="translate(47)"/>
                    <path stroke="#231F20" stroke-linecap="round" stroke-linejoin="round" stroke-width=".6" d="M45.964 39.848L46.425 39.571M43.101 41.46s.988 1.5 2.863 1.5" transform="translate(47)"/>
                    <path fill="#231F20" d="M41.877 26.417c.375 4.318-2.438 5.03-4.163 7.618-.846 1.27-1.232 2.395-1.406 3.212-.169.794-.96 1.296-1.754 1.121-.717-.158-2.192-1.418-3.332-2.377-.33-.279-.824.032-.716.45.622 2.403 1.823 7.443 1.56 9.584-.352 2.86-5.152.685-6.652-1.19 0 0-1.612.713-2.325-1.65-.415-1.376-.079-3.279.273-4.626.257-.981.024-2.014-.595-2.817-1.028-1.334-2.322-3.808-1.778-7.407.863-5.7 7.062-7.612 9.156-4.312 0 0 2.132-4.425 6.669-4.275 4.538.15 5.063 6.669 5.063 6.669" transform="translate(47)"/>
                    <path stroke="#231F20" stroke-linecap="round" stroke-linejoin="round" stroke-width=".6" d="M41.877 26.417c.375 4.318-2.438 5.03-4.163 7.618-.846 1.27-1.232 2.395-1.406 3.212-.169.794-.96 1.296-1.754 1.121-.717-.158-2.192-1.418-3.332-2.377-.33-.279-.824.032-.716.45.622 2.403 1.823 7.443 1.56 9.584-.352 2.86-5.152.685-6.652-1.19 0 0-1.612.713-2.325-1.65-.415-1.376-.079-3.279.273-4.626.257-.981.024-2.014-.595-2.817-1.028-1.334-2.322-3.808-1.778-7.407.863-5.7 7.062-7.612 9.156-4.312 0 0 2.132-4.425 6.669-4.275 4.538.15 5.063 6.669 5.063 6.669zM30.145 24.023s1.79-5.2 7.074-6" transform="translate(47)"/>
                    <g>
                        <path fill="#F3E8E2" d="M3.664 1.153s-1.125-1.763-2.7 0c-1.575 1.763-.45 5.475 2.7 5.025" transform="translate(47) translate(28.8 36.032)"/>
                        <path stroke="#231F20" stroke-linecap="round" stroke-linejoin="round" stroke-width=".6" d="M3.664 1.153s-1.125-1.763-2.7 0c-1.575 1.763-.45 5.475 2.7 5.025" transform="translate(47) translate(28.8 36.032)"/>
                    </g>
                    <path stroke="#231F20" stroke-linecap="round" stroke-linejoin="round" stroke-width=".6" d="M30.76 37.823c1.216 0-.209 2.288 1.704 2.887" transform="translate(47)"/>
                    <path fill="#346E94" d="M29.057 53.282s4.779 11.14 8.162 38.94c3.383 27.8 2.204 37.4 2.204 37.4l-25.221.9 2.11-34.93-5.86-27.851s-.45-1.793.6-3.33c1.05-1.538 18.005-11.129 18.005-11.129" transform="translate(47)"/>
                    <path stroke="#231F20" stroke-linecap="round" stroke-linejoin="round" stroke-width=".6" d="M29.057 53.282s4.779 11.14 8.162 38.94c3.383 27.8 2.204 37.4 2.204 37.4l-25.221.9 2.11-34.93-5.86-27.851s-.45-1.793.6-3.33c1.05-1.538 18.005-11.129 18.005-11.129z" transform="translate(47)"/>
                    <path fill="#231F20" d="M26.427 99.272c-4.925 8.75-6.485 18.054-6.485 18.054s-4.13-13.704-2.685-19.303c0 0 2.595 2.2 9.17 1.25" transform="translate(47)"/>
                    <path stroke="#231F20" stroke-linecap="round" stroke-linejoin="round" stroke-width=".6" d="M26.427 99.272c-4.925 8.75-6.485 18.054-6.485 18.054s-4.13-13.704-2.685-19.303c0 0 2.595 2.2 9.17 1.25zM18.227 81.873c6.825.3 13.425-3.15 13.425-3.15l1.5 5.55-6.725 3.95h-7.674" transform="translate(47)"/>
                    <path stroke="#231F20" stroke-linecap="round" stroke-linejoin="round" stroke-width=".6" d="M31.136 85.457l.491 9.306c.087 1.653-.902 3.168-2.447 3.762-1.895.728-4.833 1.352-8.809.747M38.154 100.523c.248 7.7-5.002 20.18-5.002 20.18" transform="translate(47)"/>
                    <path fill="#231F20" d="M27.501 84.748c0 .828-.671 1.5-1.5 1.5-.828 0-1.5-.672-1.5-1.5s.672-1.5 1.5-1.5c.829 0 1.5.672 1.5 1.5" transform="translate(47)"/>
                    <path fill="#346E94" d="M26.143 54.877l-2.14 12.046s5.24-1.166 9.42 2.017c0 0-.607-10.403-4.366-15.658h-1.01c-.938 0-1.74.672-1.904 1.595" transform="translate(47)"/>
                    <path stroke="#231F20" stroke-linecap="round" stroke-linejoin="round" stroke-width=".6" d="M26.143 54.877l-2.14 12.046s5.24-1.166 9.42 2.017c0 0-.607-10.403-4.366-15.658h-1.01c-.938 0-1.74.672-1.904 1.595z" transform="translate(47)"/>
                    <g>
                        <path fill="#346E94" d="M11.052.178c-3.85 3.212-3.85 7.862-4.55 10.387-.7 2.526-2.7 2.742-3.3 7.734-.6 4.992.1 4.755.6 9.523s-3.4 8.518-3.5 13.794c-.1 5.274 4.65 5.274 5.375 9.275.725 4-2.676 7.954-.475 8.577 2.2.622 10 4.423 13.2-1.378 3.2-5.8.3-5.7 1.2-11.6.9-5.9 4.1-4.1 1.6-11.5-2.5-7.4 1.1-9.65-1.5-16.175s-4.6-9.025-4.6-9.025" transform="translate(47) translate(0 64.232)"/>
                        <path stroke="#231F20" stroke-linecap="round" stroke-linejoin="round" stroke-width=".6" d="M11.052.178c-3.85 3.212-3.85 7.862-4.55 10.387-.7 2.526-2.7 2.742-3.3 7.734-.6 4.992.1 4.755.6 9.523s-3.4 8.518-3.5 13.794c-.1 5.274 4.65 5.274 5.375 9.275.725 4-2.676 7.954-.475 8.577 2.2.622 10 4.423 13.2-1.378 3.2-5.8.3-5.7 1.2-11.6.9-5.9 4.1-4.1 1.6-11.5-2.5-7.4 1.1-9.65-1.5-16.175s-4.6-9.025-4.6-9.025" transform="translate(47) translate(0 64.232)"/>
                    </g>
                    <path stroke="#231F20" stroke-linecap="round" stroke-linejoin="round" stroke-width=".6" d="M17.702 73.373c1.3 3.25 1.027 7.35 1.027 7.35M12.102 68.94s-1.878-1.983-2.94-2.45M4.557 112.778c3.544 2.145 4.606 5.545 4.606 5.545M20.37 91.902c-.569 4.62-3.168 9.62-3.168 9.62" transform="translate(47)"/>
                    <path fill="#231F20" d="M6.942 123.36l.592 4.624c.074.58.635.962 1.203.827 1.503-.359 4.427-.88 7.613-.508.49.056.942-.27 1.053-.75l1.185-5.105c.117-.504-.174-1.009-.669-1.159-1.783-.54-6.07-1.383-10.505 1.106-.34.19-.522.578-.472.966" transform="translate(47)"/>
                    <path stroke="#231F20" stroke-linecap="round" stroke-linejoin="round" stroke-width=".6" d="M6.942 123.36l.592 4.624c.074.58.635.962 1.203.827 1.503-.359 4.427-.88 7.613-.508.49.056.942-.27 1.053-.75l1.185-5.105c.117-.504-.174-1.009-.669-1.159-1.783-.54-6.07-1.383-10.505 1.106-.34.19-.522.578-.472.966z" transform="translate(47)"/>
                    <path fill="#F3E8E2" d="M14.861 126.131c.962.088 1.678.923 1.682 1.889.018 3.812 1.172 5.536.509 9.778-.75 4.8-1.35 6.225-1.425 7.8-.075 1.575-2.25 1.125-2.55-2.25l-1.236 8.309c-.081.544-.643.881-1.158.688-.38-.143-.799-.443-1.131-1.047-.825-1.5-1.5-6.225-1.5-6.225s-2.4-4.425-2.25-7.35c.15-2.925 2.42-6.275 2.935-8.912 0 0 .857-3.165 6.124-2.68" transform="translate(47)"/>
                    <path stroke="#231F20" stroke-linecap="round" stroke-linejoin="round" stroke-width=".6" d="M14.861 126.131c.962.088 1.678.923 1.682 1.889.018 3.812 1.172 5.536.509 9.778-.75 4.8-1.35 6.225-1.425 7.8-.075 1.575-2.25 1.125-2.55-2.25l-1.236 8.309c-.081.544-.643.881-1.158.688-.38-.143-.799-.443-1.131-1.047-.825-1.5-1.5-6.225-1.5-6.225s-2.4-4.425-2.25-7.35c.15-2.925 2.42-6.275 2.935-8.912 0 0 .857-3.165 6.124-2.68zM13.227 138.773c.375 1.05-.15 4.575-.15 4.575M10.356 139.273c-.654 3.4 0 12.908 0 12.908M7.827 138.773s-.106 4.322.225 6.3" transform="translate(47)"/>
                    <g>
                        <path fill="#346E94" d="M18.598 5.494C15.1 1.02 3.202.29 3.202.29h-2.8c1.1 7.7-.137 13.3-.137 13.3s1.237 32.4 1.437 36.3c.2 3.9 1.6 25.4 1.6 25.4s3.7.6 10.5.6 10.7-3.1 10.7-3.1-1.6-21.1-4-25.2c-2.4-4.1-2.5-1.2-2.5-8.3 0-7.1-2-8.5-1.8-12 .075-1.326.582-3.82 1.112-6.716" transform="translate(47) translate(40.8 54.632)"/>
                        <path stroke="#231F20" stroke-linecap="round" stroke-linejoin="round" stroke-width=".6" d="M18.598 5.494C15.1 1.02 3.202.29 3.202.29h-2.8c1.1 7.7-.137 13.3-.137 13.3s1.237 32.4 1.437 36.3c.2 3.9 1.6 25.4 1.6 25.4s3.7.6 10.5.6 10.7-3.1 10.7-3.1-1.6-21.1-4-25.2c-2.4-4.1-2.5-1.2-2.5-8.3 0-7.1-2-8.5-1.8-12 .075-1.326.582-3.82 1.112-6.716" transform="translate(47) translate(40.8 54.632)"/>
                    </g>
                    <path stroke="#231F20" stroke-linecap="round" stroke-linejoin="round" stroke-width=".6" d="M47.702 112.778c5.7 5.045 12.462 3.345 12.462 3.345M58.952 71.023c.85-6.1 1.46-9.72.445-10.896" transform="translate(47)"/>
                    <path fill="#346E94" d="M41.064 50.178s6.537 3.329 8.637 17.537c0 0-4.574-1.692-8.637.508V50.178z" transform="translate(47)"/>
                    <path stroke="#231F20" stroke-linecap="round" stroke-linejoin="round" stroke-width=".6" d="M41.064 50.178s6.537 3.329 8.637 17.537c0 0-4.574-1.692-8.637.508V50.178zM58.114 75.207c-4.513 2.74-13.912 1.841-13.912 1.841v5.775s6.6 1.725 8.4 1.425c1.8-.3 4.4-2.325 4.4-2.325M45.252 83.248s-.15 10.787.525 11.706c.675.919 5.212 2.748 7.406 1.758 2.194-.99 3.818-1.758 3.818-1.758" transform="translate(47)"/>
                    <path fill="#231F20" d="M53.601 81.173c0 .828-.671 1.5-1.5 1.5-.828 0-1.5-.672-1.5-1.5 0-.829.672-1.5 1.5-1.5.829 0 1.5.671 1.5 1.5" transform="translate(47)"/>
                    <path stroke="#231F20" stroke-linecap="round" stroke-linejoin="round" stroke-width=".6" d="M54.801 91.902c1.3 4.32 5.363 8.62 5.363 8.62" transform="translate(47)"/>
                    <g>
                        <path fill="#FFAA3F" d="M19.077.388s-.225 2.7.436 7.567c.662 4.866 1.739 8.108-.886 8.858s-5.7 4.2-8.325 5.4c-2.625 1.2-6.9.975-8.4.525-1.5-.45-2.925-5.925-.375-8.475s6.847-6.858 8.025-11.1c.375-1.35-.075-2.775-.075-2.775" transform="translate(47) translate(76.2 219.632)"/>
                        <path stroke="#231F20" stroke-linecap="round" stroke-linejoin="round" stroke-width=".6" d="M19.077.388s-.225 2.7.436 7.567c.662 4.866 1.739 8.108-.886 8.858s-5.7 4.2-8.325 5.4c-2.625 1.2-6.9.975-8.4.525-1.5-.45-2.925-5.925-.375-8.475s6.847-6.858 8.025-11.1c.375-1.35-.075-2.775-.075-2.775" transform="translate(47) translate(76.2 219.632)"/>
                    </g>
                    <path fill="#231F20" d="M95.277 220.02h-9.6s.45 1.426.075 2.776c-.114.411-.266.822-.434 1.233v.007c3.154.17 5.466.779 7.142 1.502 1.479.638 3.11-.477 3.017-2.084l-.2-3.433" transform="translate(47)"/>
                    <path stroke="#231F20" stroke-linecap="round" stroke-linejoin="round" stroke-width=".6" d="M95.277 220.02h-9.6s.45 1.426.075 2.776c-.114.411-.266.822-.434 1.233v.007c3.154.17 5.466.779 7.142 1.502 1.479.638 3.11-.477 3.017-2.084l-.2-3.433z" transform="translate(47)"/>
                    <path fill="#231F20" d="M94.827 236.446c1.96-.56 1.855-2.51 1.402-5.486-1.308.464-3.485 1.566-5.977 4.174-3.75 3.924-7.44 4.21-13.917 3.043.084 2.05.912 3.937 1.767 4.194 1.5.45 5.775.675 8.4-.525 2.625-1.2 5.7-4.65 8.325-5.4" transform="translate(47)"/>
                    <path stroke="#231F20" stroke-linecap="round" stroke-linejoin="round" stroke-width=".6" d="M94.827 236.446c1.96-.56 1.855-2.51 1.402-5.486-1.308.464-3.485 1.566-5.977 4.174-3.75 3.924-7.44 4.21-13.917 3.043.084 2.05.912 3.937 1.767 4.194 1.5.45 5.775.675 8.4-.525 2.625-1.2 5.7-4.65 8.325-5.4zM82.227 232.062s7.019-1.451 8.294 4.136" transform="translate(47)"/>
                    <g>
                        <path fill="#FFAA3F" d="M1.69.44s.225 5.048-.437 9.915c-.661 4.866-1.738 8.108.887 8.858s5.7 4.2 8.325 5.4c2.625 1.2 6.9.975 8.4.525 1.5-.45 2.925-5.925.375-8.475s-6.847-6.858-8.025-11.1C10.84 4.213 11.29.44 11.29.44" transform="translate(47) translate(93.6 217.232)"/>
                        <path stroke="#231F20" stroke-linecap="round" stroke-linejoin="round" stroke-width=".6" d="M1.69.44s.225 5.048-.437 9.915c-.661 4.866-1.738 8.108.887 8.858s5.7 4.2 8.325 5.4c2.625 1.2 6.9.975 8.4.525 1.5-.45 2.925-5.925.375-8.475s-6.847-6.858-8.025-11.1C10.84 4.213 11.29.44 11.29.44" transform="translate(47) translate(93.6 217.232)"/>
                    </g>
                    <path fill="#231F20" d="M104.815 222.796c-.375-1.35.075-5.123.075-5.123h-9.6l-.295 6.605c-.073 1.623 1.516 2.805 3.05 2.27l7.202-2.512.002-.007c-.17-.41-.32-.822-.434-1.233" transform="translate(47)"/>
                    <path stroke="#231F20" stroke-linecap="round" stroke-linejoin="round" stroke-width=".6" d="M104.815 222.796c-.375-1.35.075-5.123.075-5.123h-9.6l-.295 6.605c-.073 1.623 1.516 2.805 3.05 2.27l7.202-2.512.002-.007c-.17-.41-.32-.822-.434-1.233z" transform="translate(47)"/>
                    <path fill="#231F20" d="M95.74 236.446c-1.96-.56-1.856-2.51-1.402-5.486 1.308.464 3.484 1.566 5.977 4.174 3.75 3.924 7.44 4.21 13.916 3.043-.084 2.05-.911 3.937-1.766 4.194-1.5.45-5.775.675-8.4-.525-2.625-1.2-5.7-4.65-8.325-5.4" transform="translate(47)"/>
                    <path stroke="#231F20" stroke-linecap="round" stroke-linejoin="round" stroke-width=".6" d="M95.74 236.446c-1.96-.56-1.856-2.51-1.402-5.486 1.308.464 3.484 1.566 5.977 4.174 3.75 3.924 7.44 4.21 13.916 3.043-.084 2.05-.911 3.937-1.766 4.194-1.5.45-5.775.675-8.4-.525-2.625-1.2-5.7-4.65-8.325-5.4zM108.592 232.073s-5.594-.487-6.87 5.1" transform="translate(47)"/>
                    <g>
                        <path fill="#346E94" d="M22.602 25.444l-.8 36.646 2.9 50.4c-4.9 3.2-12.623 2.8-12.623 2.8l-6.877-26.5-2.364-12.1s.164-14.6-1.792-23.4C-.91 44.49.602.49.602.49h24.1" transform="translate(47) translate(71.4 106.232)"/>
                        <path stroke="#231F20" stroke-linecap="round" stroke-linejoin="round" stroke-width=".6" d="M22.602 25.444l-.8 36.646 2.9 50.4c-4.9 3.2-12.623 2.8-12.623 2.8l-6.877-26.5-2.364-12.1s.164-14.6-1.792-23.4C-.91 44.49.602.49.602.49h24.1" transform="translate(47) translate(71.4 106.232)"/>
                    </g>
                    <path fill="#231F20" d="M90.201 130.134L93.201 168.322 94.001 131.676z" transform="translate(47)"/>
                    <path stroke="#231F20" stroke-linecap="round" stroke-linejoin="round" stroke-width=".6" d="M90.201 130.134L93.201 168.322 94.001 131.676zM72.446 159.523c3.556 9.55 5.506 20.95 5.506 20.95M93.201 168.323L91.151 180.473M81.974 215.723s8.1-.607 13.739-3.754M79.365 176.61l1.097 5.901M81.63 179.118l.886 5.103" transform="translate(47)"/>
                    <g>
                        <path fill="#346E94" d="M.602 10.166C.254 13.52.105 16.268.047 18.302c-.072 2.552.685 5.054 2.155 7.142L5.564 62.09l-2.9 50.4c4.9 3.2 12.623 2.8 12.623 2.8l6.877-26.5 2.364-12.1s-.164-14.6 1.792-23.4c1.955-8.8-3.019-52.8-3.019-52.8H2.664" transform="translate(47) translate(91.8 106.232)"/>
                        <path stroke="#231F20" stroke-linecap="round" stroke-linejoin="round" stroke-width=".6" d="M.602 10.166C.254 13.52.105 16.268.047 18.302c-.072 2.552.685 5.054 2.155 7.142L5.564 62.09l-2.9 50.4c4.9 3.2 12.623 2.8 12.623 2.8l6.877-26.5 2.364-12.1s-.164-14.6 1.792-23.4c1.955-8.8-3.019-52.8-3.019-52.8H2.664" transform="translate(47) translate(91.8 106.232)"/>
                    </g>
                    <path stroke="#231F20" stroke-linecap="round" stroke-linejoin="round" stroke-width=".6" d="M94.002 131.676c2.4-5.604 4.8-7.51 4.8-7.51" transform="translate(47)"/>
                    <g>
                        <path fill="#346E94" d="M6.402 3.244C4.002 2.99.502.29.502.29" transform="translate(47) translate(87.6 128.432)"/>
                        <path stroke="#231F20" stroke-linecap="round" stroke-linejoin="round" stroke-width=".6" d="M6.402 3.244C4.002 2.99.502.29.502.29" transform="translate(47) translate(87.6 128.432)"/>
                    </g>
                    <g>
                        <path fill="#346E94" d="M.302 7.147c.2-4.257.936-6.693.936-6.693" transform="translate(47) translate(94.2 120.032)"/>
                        <path stroke="#231F20" stroke-linecap="round" stroke-linejoin="round" stroke-width=".6" d="M.302 7.147c.2-4.257.936-6.693.936-6.693" transform="translate(47) translate(94.2 120.032)"/>
                    </g>
                    <path stroke="#231F20" stroke-linecap="round" stroke-linejoin="round" stroke-width=".6" d="M118.12 159.523c-3.555 9.55-5.505 20.95-5.505 20.95M97.365 168.323L99.415 180.473M108.592 215.723s-8.1-.607-13.739-3.754M111.2 176.61c-.365 1.968-.73 3.934-1.097 5.901M108.937 179.118l-.887 5.103" transform="translate(47)"/>
                    <path fill="#F3E8E2" d="M102.991 40.968l-1.89-5.496c-3.3-4.2-4.609-13.015-4.609-13.015l-10.74 4.966s2.4 8.85.45 14.35c-.305.86-.42 1.742-.396 2.619.147 5.333 5.392 9.055 10.566 7.753l.651-.164c4.831-1.215 7.588-6.303 5.968-11.013" transform="translate(47)"/>
                    <path stroke="#231F20" stroke-linecap="round" stroke-linejoin="round" stroke-width=".6" d="M102.991 40.968l-1.89-5.496c-3.3-4.2-4.609-13.015-4.609-13.015l-10.74 4.966s2.4 8.85.45 14.35c-.305.86-.42 1.742-.396 2.619.147 5.333 5.392 9.055 10.566 7.753l.651-.164c4.831-1.215 7.588-6.303 5.968-11.013z" transform="translate(47)"/>
                    <path fill="#231F20" d="M85.887 27.965c.402 1.677 1.518 6.955.887 11.383l.01.006c4.01-2.845 3.78-10.144 3.78-10.144.002-1.296-1.238-2.231-2.484-1.874l-2.193.629z" transform="translate(47)"/>
                    <path stroke="#231F20" stroke-linecap="round" stroke-linejoin="round" stroke-width=".6" d="M85.887 27.965c.402 1.677 1.518 6.955.887 11.383l.01.006c4.01-2.845 3.78-10.144 3.78-10.144.002-1.296-1.238-2.231-2.484-1.874l-2.193.629z" transform="translate(47)"/>
                    <path fill="#F56D8E" d="M89.402 46.123c9.2.7 14.407-9.51 14.407-9.51L118.1 64.41l-1.4 48.368s-18.8 2.475-26.9 1.81c-8.1-.665-15.7-2.965-15.7-2.965l1.3-52.423 14-13.077z" transform="translate(47)"/>
                    <path stroke="#231F20" stroke-linecap="round" stroke-linejoin="round" stroke-width=".6" d="M89.402 46.123c9.2.7 14.407-9.51 14.407-9.51L118.1 64.41l-1.4 48.368s-18.8 2.475-26.9 1.81c-8.1-.665-15.7-2.965-15.7-2.965l1.3-52.423 14-13.077z" transform="translate(47)"/>
                    <path fill="#231F20" d="M95.381 82.673s-12.763 1.04-20.672 4.44l-.607 24.51s7.6 2.3 15.7 2.965l.029.002c1.866.152 3.538-1.184 3.822-3.034 2.267-14.717 1.728-28.883 1.728-28.883" transform="translate(47)"/>
                    <path stroke="#231F20" stroke-linecap="round" stroke-linejoin="round" stroke-width=".6" d="M95.381 82.673s-12.763 1.04-20.672 4.44l-.607 24.51s7.6 2.3 15.7 2.965l.029.002c1.866.152 3.538-1.184 3.822-3.034 2.267-14.717 1.728-28.883 1.728-28.883z" transform="translate(47)"/>
                    <path fill="#231F20" d="M86.896 12.395c0 4.458-3.614 8.072-8.073 8.072-4.458 0-8.071-3.614-8.071-8.072 0-4.458 3.613-8.073 8.071-8.073 4.459 0 8.073 3.615 8.073 8.073" transform="translate(47)"/>
                    <path stroke="#231F20" stroke-linecap="round" stroke-linejoin="round" stroke-width=".6" d="M86.896 12.395c0 4.458-3.614 8.072-8.073 8.072-4.458 0-8.071-3.614-8.071-8.072 0-4.458 3.613-8.073 8.071-8.073 4.459 0 8.073 3.615 8.073 8.073z" transform="translate(47)"/>
                    <g>
                        <path fill="#F3E8E2" d="M14.802 22.315s-5.75 3.625-8.15 2.525c-2.4-1.1-4.15-6.75-4.15-6.75s-1.8.15-2.05-.6c-.25-.75.3-2 .95-3.95.65-1.95-.8-5.65.8-8.9 0 0 .5-2.9 6.45-4.1 5.95-1.2 9.3-.2 10.35 7 1.05 7.2 2 11.812 2 11.812" transform="translate(47) translate(76.2 6.632)"/>
                        <path stroke="#231F20" stroke-linecap="round" stroke-linejoin="round" stroke-width=".6" d="M14.802 22.315s-5.75 3.625-8.15 2.525c-2.4-1.1-4.15-6.75-4.15-6.75s-1.8.15-2.05-.6c-.25-.75.3-2 .95-3.95.65-1.95-.8-5.65.8-8.9 0 0 .5-2.9 6.45-4.1 5.95-1.2 9.3-.2 10.35 7 1.05 7.2 2 11.812 2 11.812" transform="translate(47) translate(76.2 6.632)"/>
                    </g>
                    <path stroke="#231F20" stroke-linecap="round" stroke-linejoin="round" stroke-width=".6" d="M81.302 27.823c1.9-.85 2.4-2.692 2.4-2.692" transform="translate(47)"/>
                    <path fill="#231F20" d="M81.576 17.698c0 .497-.402.9-.9.9-.496 0-.9-.403-.9-.9s.404-.9.9-.9c.498 0 .9.403.9.9M77.402 10.173c5.1.9 2.3 6.15 5.1 6.625 2.8.475 5.725-1.625 5.725-1.625l1.797 2.917c.315.513.95.732 1.515.521l1.313-.488s3.133 1.227 3.52 3.387c.386 2.162.661 3.621.661 3.621s.953 1.27 3.119.19c2.8-1.398 1.7-6.448 1.7-6.448s2.35-4.3 1.9-7.5c-.45-3.2-5.2-4.2-5.2-4.2s-.3-6-8.3-6.8c-8-.8-13.071 5.195-12.85 9.8" transform="translate(47)"/>
                    <path stroke="#231F20" stroke-linecap="round" stroke-linejoin="round" stroke-width=".6" d="M77.402 10.173c5.1.9 2.3 6.15 5.1 6.625 2.8.475 5.725-1.625 5.725-1.625l1.797 2.917c.315.513.95.732 1.515.521l1.313-.488s3.133 1.227 3.52 3.387c.386 2.162.661 3.621.661 3.621s.953 1.27 3.119.19c2.8-1.398 1.7-6.448 1.7-6.448s2.35-4.3 1.9-7.5c-.45-3.2-5.2-4.2-5.2-4.2s-.3-6-8.3-6.8c-8-.8-13.071 5.195-12.85 9.8z" transform="translate(47)"/>
                    <g>
                        <path fill="#F3E8E2" d="M.201 3.94s-.1-3.5 1.75-3.9c1.85-.4 4.1 4.2 1.15 6.5" transform="translate(47) translate(92.4 15.032)"/>
                        <path stroke="#231F20" stroke-linecap="round" stroke-linejoin="round" stroke-width=".6" d="M.201 3.94s-.1-3.5 1.75-3.9c1.85-.4 4.1 4.2 1.15 6.5" transform="translate(47) translate(92.4 15.032)"/>
                    </g>
                    <path stroke="#231F20" stroke-linecap="round" stroke-linejoin="round" stroke-width=".6" d="M94.604 16.548c-1.128 1.275-.052 3.125.372 3.45" transform="translate(47)"/>
                    <path fill="#F3E8E2" d="M72.002 112.778c.55 3.195 2.5 3.495 2.95 7.395.45 3.9 2.924 8.4 3.75 9.6.824 1.2-.94 2.498-2.4 1.425-1.984-1.459-3.3-2.925-3.3-2.925l-2.55 8.775s-3.385-.675-4.018-2.775c-.632-2.1-2.207-.75-3.032-3.75-.595-2.163.235-7.25.744-9.922.224-1.172.263-2.368.113-3.551l-.693-5.427s5.035-1.29 8.436 1.155" transform="translate(47)"/>
                    <path stroke="#231F20" stroke-linecap="round" stroke-linejoin="round" stroke-width=".6" d="M72.002 112.778c.55 3.195 2.5 3.495 2.95 7.395.45 3.9 2.924 8.4 3.75 9.6.824 1.2-.94 2.498-2.4 1.425-1.984-1.459-3.3-2.925-3.3-2.925l-2.55 8.775s-3.385-.675-4.018-2.775c-.632-2.1-2.207-.75-3.032-3.75-.595-2.163.235-7.25.744-9.922.224-1.172.263-2.368.113-3.551l-.693-5.427s5.035-1.29 8.436 1.155z" transform="translate(47)"/>
                    <path fill="#231F20" d="M74.952 120.173c-.45-3.9-2.4-4.2-2.95-7.395-.401-.289-.826-.521-1.262-.714l-4.965-.752c-1.3.081-2.21.31-2.21.31l.472 3.69c4.999 1.938 9.276 5.242 11.333 6.993-.19-.715-.338-1.433-.418-2.132" transform="translate(47)"/>
                    <path stroke="#231F20" stroke-linecap="round" stroke-linejoin="round" stroke-width=".6" d="M74.952 120.173c-.45-3.9-2.4-4.2-2.95-7.395-.401-.289-.826-.521-1.262-.714l-4.965-.752c-1.3.081-2.21.31-2.21.31l.472 3.69c4.999 1.938 9.276 5.242 11.333 6.993-.19-.715-.338-1.433-.418-2.132zM68.151 130.523s-.832 4.506 1.009 6.128M65.652 129.373s-.275 2.992.253 3.946" transform="translate(47)"/>
                    <path fill="#F3E8E2" d="M73 136.44l.001-.017s.985-.416 1.237-1.95c.384-.388.492-1.013.252-1.536-.38-.828-2.538-2.343-4.255-2.784-.3-.076-.6.078-.748.378-.143.29-.113.654.076.917.2.278.484.66.81 1.066-.185.047-.35.173-.447.37-.144.29-.114.654.076.917.29.403.757 1.025 1.275 1.626-.353-.156-.706-.285-1.042-.371-.3-.077-.6.078-.748.378-.143.29-.113.654.076.917.174.242.411.56.684.907.869 1.101 2.656.58 2.754-.818" transform="translate(47)"/>
                    <path stroke="#231F20" stroke-linecap="round" stroke-linejoin="round" stroke-width=".6" d="M73 136.44l.001-.017s.985-.416 1.237-1.95c.384-.388.492-1.013.252-1.536-.38-.828-2.538-2.343-4.255-2.784-.3-.076-.6.078-.748.378-.143.29-.113.654.076.917.2.278.484.66.81 1.066-.185.047-.35.173-.447.37-.144.29-.114.654.076.917.29.403.757 1.025 1.275 1.626-.353-.156-.706-.285-1.042-.371-.3-.077-.6.078-.748.378-.143.29-.113.654.076.917.174.242.411.56.684.907.869 1.101 2.656.58 2.754-.818z" transform="translate(47)"/>
                    <path fill="#F3E8E2" d="M69.464 127.62c.162-.311.502-.487.847-.43 1.986.324 4.511 1.695 4.972 2.498.508.885-.182 2.152-1.706 1.97-1.188-.14-3.177-2.216-3.997-3.126-.226-.25-.271-.613-.116-.913" transform="translate(47)"/>
                    <path stroke="#231F20" stroke-linecap="round" stroke-linejoin="round" stroke-width=".6" d="M69.464 127.62c.162-.311.502-.487.847-.43 1.986.324 4.511 1.695 4.972 2.498.508.885-.182 2.152-1.706 1.97-1.188-.14-3.177-2.216-3.997-3.126-.226-.25-.271-.613-.116-.913zM71.277 135.426c.624.597 1.725.996 1.725.996M70.374 132.514c2.078 1.86 3.864 1.958 3.864 1.958" transform="translate(47)"/>
                    <g>
                        <path fill="#FFAA3F" d="M15.49.215S9.888 2.578 5.301 6.59c-5.03 4.401-3.823 31.725-3.823 31.725S.426 51.49.164 58.891c-.263 7.4.738 15.8.738 15.8s8.99-.425 12.7 1.227c.7.311.5-3.928.5-3.928s2.5-38.3 2.5-43.4c0-5.1.6-22.4.6-22.4" transform="translate(47) translate(60 39.632)"/>
                        <path stroke="#231F20" stroke-linecap="round" stroke-linejoin="round" stroke-width=".6" d="M15.49.215S9.888 2.578 5.301 6.59c-5.03 4.401-3.823 31.725-3.823 31.725S.426 51.49.164 58.891c-.263 7.4.738 15.8.738 15.8s8.99-.425 12.7 1.227c.7.311.5-3.928.5-3.928s2.5-38.3 2.5-43.4c0-5.1.6-22.4.6-22.4" transform="translate(47) translate(60 39.632)"/>
                    </g>
                    <path stroke="#231F20" stroke-linecap="round" stroke-linejoin="round" stroke-width=".6" d="M61.478 77.948c1.323 5.775 2.088 15.986 2.088 15.986M71.814 57.923s-1.569-1.451-2.373-4.054c-.176-.567-.996-.54-1.11.044-.099.514-.055 1.116.33 1.74 1.05 1.7 2.236 1.174 2.236 1.174M60.233 105.778s6.313-2.044 12.969 0" transform="translate(47)"/>
                    <path fill="#231F20" d="M66.402 109.373c0 .828-.672 1.5-1.5 1.5-.83 0-1.5-.672-1.5-1.5 0-.829.67-1.5 1.5-1.5.828 0 1.5.671 1.5 1.5" transform="translate(47)"/>
                    <g>
                        <path fill="#FFAA3F" d="M2.402 12.062s-2 7.628-1.2 12.491c.8 4.863-.9 8.037-.612 19.737.29 11.7 2.712 31.3 2.712 31.3 5.2-4.7 17.18-2.5 17.18-2.5s4.32-20.9 4.32-31.175c0-10.275-1.4-27.77-1.4-27.77S16.102 8.49 16.162.37c0 0-6.83-.528-13.93 4.635" transform="translate(47) translate(70.8 36.032)"/>
                        <path stroke="#231F20" stroke-linecap="round" stroke-linejoin="round" stroke-width=".6" d="M2.402 12.062s-2 7.628-1.2 12.491c.8 4.863-.9 8.037-.612 19.737.29 11.7 2.712 31.3 2.712 31.3 5.2-4.7 17.18-2.5 17.18-2.5s4.32-20.9 4.32-31.175c0-10.275-1.4-27.77-1.4-27.77S16.102 8.49 16.162.37c0 0-6.83-.528-13.93 4.635" transform="translate(47) translate(70.8 36.032)"/>
                    </g>
                    <path stroke="#231F20" stroke-linecap="round" stroke-linejoin="round" stroke-width=".6" d="M82.502 66.323L82.012 74.728M76.619 66.323L76.327 74.98" transform="translate(47)"/>
                    <path fill="#FFAA3F" d="M86.783 33.215s-6.482 3.737-6.482 11.023c0 2.052.253 3.708.615 5.027.652 2.373 3.417 3.379 5.445 1.984 2.06-1.418 4.969-2.612 7.84-1.07 0 0-8-8.406-7.418-16.964" transform="translate(47)"/>
                    <path stroke="#231F20" stroke-linecap="round" stroke-linejoin="round" stroke-width=".6" d="M86.783 33.215s-6.482 3.737-6.482 11.023c0 2.052.253 3.708.615 5.027.652 2.373 3.417 3.379 5.445 1.984 2.06-1.418 4.969-2.612 7.84-1.07 0 0-8-8.406-7.418-16.964zM71.916 55.652c10.536-2.004 16.686 0 16.686 0v4.575c0 1.089-.693 2.058-1.723 2.412l-6.686 2.295c-.564.193-1.182.156-1.717-.106l-6.33-3.085" transform="translate(47)"/>
                    <path stroke="#231F20" stroke-linecap="round" stroke-linejoin="round" stroke-width=".6" d="M80.98 61.11c0 .669-.542 1.21-1.21 1.21-.667 0-1.21-.541-1.21-1.21 0-.667.543-1.209 1.21-1.209.668 0 1.21.542 1.21 1.21zM86.88 62.639c-.082 2.28-.076 5.357-.054 7.735.02 2.185-1.623 4.03-3.798 4.251-2.91.297-6.831.736-11.339-.277M95.601 77.948c-.9 5.075-7.4 23.475-7.5 24.175" transform="translate(47)"/>
                    <g>
                        <path fill="#F3E8E2" d="M7.094.07c-.6 4.77-1.65 6.37-3.9 9.97-2.25 3.6-3.04 9.521-2.4 9.75 1.608.575 1.922-1.85 3.062-3.95 1.138-2.1 1.539-2.2 1.539-2.2s.75 1.55.25 4.5-2.65 6.7-1.55 7.4c1.1.7 2.4 0 2.4 0s3.1-.6 3.85-2.1c0 0 .95.8 2.7-2.65 1.75-3.45 3.35-5.1 2.85-10.2s-.35-9.35-.35-9.35" transform="translate(47) translate(109.8 114.632)"/>
                        <path stroke="#231F20" stroke-linecap="round" stroke-linejoin="round" stroke-width=".6" d="M7.094.07c-.6 4.77-1.65 6.37-3.9 9.97-2.25 3.6-3.04 9.521-2.4 9.75 1.608.575 1.922-1.85 3.062-3.95 1.138-2.1 1.539-2.2 1.539-2.2s.75 1.55.25 4.5-2.65 6.7-1.55 7.4c1.1.7 2.4 0 2.4 0s3.1-.6 3.85-2.1c0 0 .95.8 2.7-2.65 1.75-3.45 3.35-5.1 2.85-10.2s-.35-9.35-.35-9.35" transform="translate(47) translate(109.8 114.632)"/>
                    </g>
                    <path fill="#231F20" d="M116.894 114.702c-.451 3.593-1.16 5.388-2.442 7.593 4.435-2.37 8.64-3.4 10.878-3.816-.02-1.605.014-2.606.014-2.606l-8.45-1.171z" transform="translate(47)"/>
                    <path stroke="#231F20" stroke-linecap="round" stroke-linejoin="round" stroke-width=".6" d="M116.894 114.702c-.451 3.593-1.16 5.388-2.442 7.593 4.435-2.37 8.64-3.4 10.878-3.816-.02-1.605.014-2.606.014-2.606l-8.45-1.171zM115.156 140.478c1.745-2.106 3.42-8.556 3.42-8.556M117.492 139.845s2.61-3.522 3.21-7.922M120.145 138.073s1.735-2.65 2.17-6.15" transform="translate(47)"/>
                    <g>
                        <path fill="#FFAA3F" d="M.002 38.29l2.65 27.25-.95 8.85h11.9l1.35-8.85-1.2-1.5s2.85-13.55 3.3-23.125c.45-9.575 1.5-15.131 0-23.378s-2.475-9.729-4.275-11.734C10.977 3.797 6.09.405 6.09.405" transform="translate(47) translate(113.4 43.832)"/>
                        <path stroke="#231F20" stroke-linecap="round" stroke-linejoin="round" stroke-width=".6" d="M.002 38.29l2.65 27.25-.95 8.85h11.9l1.35-8.85-1.2-1.5s2.85-13.55 3.3-23.125c.45-9.575 1.5-15.131 0-23.378s-2.475-9.729-4.275-11.734C10.977 3.797 6.09.405 6.09.405" transform="translate(47) translate(113.4 43.832)"/>
                    </g>
                    <path stroke="#231F20" stroke-linecap="round" stroke-linejoin="round" stroke-width=".6" d="M126.177 49.635L123.702 55.691M120.552 107.923c4.65.05 7.8 1.45 7.8 1.45" transform="translate(47)"/>
                    <path fill="#231F20" d="M125.315 113.123c0 .828-.67 1.5-1.5 1.5-.828 0-1.5-.672-1.5-1.5 0-.829.672-1.5 1.5-1.5.83 0 1.5.671 1.5 1.5" transform="translate(47)"/>
                    <g>
                        <path fill="#FFAA3F" d="M21.002 22.69l3.5 1-.6 5.475-1.2 1.613-1.9 8.962s.1 1.15.5 4.575c.4 3.425 0 30.575 0 30.575-3.3 0-20.8 2.09-20.8 2.09s-.6-13.09-.4-18.126C.302 53.818 4.202 9.49 2.45.59c0 0 11.248 3.563 22.434 12.365" transform="translate(47) translate(97.8 33.632)"/>
                        <path stroke="#231F20" stroke-linecap="round" stroke-linejoin="round" stroke-width=".6" d="M21.002 22.69l3.5 1-.6 5.475-1.2 1.613-1.9 8.962s.1 1.15.5 4.575c.4 3.425 0 30.575 0 30.575-3.3 0-20.8 2.09-20.8 2.09s-.6-13.09-.4-18.126C.302 53.818 4.202 9.49 2.45.59c0 0 11.248 3.563 22.434 12.365" transform="translate(47) translate(97.8 33.632)"/>
                    </g>
                    <path stroke="#231F20" stroke-linecap="round" stroke-linejoin="round" stroke-width=".6" d="M110.081 65.056L108.915 73.436M115.101 65.575L114.303 73.847M118.602 73.373c-.9 9.45-3.5 28.25-3.5 28.25M105.433 61.11l-1.015 8.622c-.186 1.579.874 3.027 2.431 3.341 2.954.594 7.76 1.246 11.753.3M115.103 61.37c0 .695-.538 1.26-1.2 1.26-.663 0-1.2-.565-1.2-1.26 0-.696.537-1.26 1.2-1.26.662 0 1.2.564 1.2 1.26z" transform="translate(47)"/>
                    <path stroke="#231F20" stroke-linecap="round" stroke-linejoin="round" stroke-width=".6" d="M121.701 62.798l-7.9 1.613-9.7-3.825.7-6.78s5.7.853 12.05 1.885" transform="translate(47)"/>
                    <path fill="#231F20" d="M113.802 64.41L120.501 64.41 121.701 62.797z" transform="translate(47)"/>
                    <path stroke="#231F20" stroke-linecap="round" stroke-linejoin="round" stroke-width=".6" d="M113.802 64.41L120.501 64.41 121.701 62.797z" transform="translate(47)"/>
                    <path fill="#FFAA3F" d="M100.572 49.22c1.67-1.478 3.444-1.87 5.05-1.752 3.924.29 7.058-3.305 6.249-7.155-.412-1.959-1.29-3.942-2.944-5.64-5.7-5.85-10.253-3.805-10.253-3.805s2.843 5.748 1.898 18.351" transform="translate(47)"/>
                    <path stroke="#231F20" stroke-linecap="round" stroke-linejoin="round" stroke-width=".6" d="M100.572 49.22c1.67-1.478 3.444-1.87 5.05-1.752 3.924.29 7.058-3.305 6.249-7.155-.412-1.959-1.29-3.942-2.944-5.64-5.7-5.85-10.253-3.805-10.253-3.805s2.843 5.748 1.898 18.351z" transform="translate(47)"/>
                </g>
            </g>
        </g>
    </g>
</svg>
